<?xml version="1.0" standalone="no"?>
<!DOCTYPE svg PUBLIC "-//W3C//DTD SVG 20010904//EN"
 "http://www.w3.org/TR/2001/REC-SVG-20010904/DTD/svg10.dtd">
<svg version="1.0" xmlns="http://www.w3.org/2000/svg"
 width="550.000000pt" height="380.000000pt" viewBox="0 0 550.000000 380.000000"
 preserveAspectRatio="xMidYMid meet">
<metadata>
Created by potrace 1.15, written by Peter Selinger 2001-2017
</metadata>
<g transform="translate(0.000000,380.000000) scale(0.100000,-0.100000)"
fill="#000000" stroke="none">
<path d="M4210 3718 c-27 -98 -92 -205 -262 -431 -32 -43 -58 -82 -58 -86 0
-5 -4 -11 -9 -13 -10 -3 -103 -146 -145 -222 -49 -88 -94 -209 -125 -336 -27
-111 -31 -142 -31 -273 0 -144 13 -217 38 -217 5 0 10 73 10 163 1 256 32 402
122 578 54 106 158 275 228 372 109 149 203 305 227 377 l18 53 41 -124 c23
-68 50 -138 59 -156 9 -18 17 -41 17 -52 0 -11 4 -22 9 -25 4 -3 18 -36 31
-73 27 -83 88 -205 139 -281 94 -139 133 -263 138 -442 4 -110 1 -136 -21
-220 -14 -52 -28 -102 -30 -112 -4 -14 -31 -67 -97 -187 -8 -16 -27 -43 -42
-60 l-26 -31 -108 0 c-59 0 -125 3 -146 7 -33 5 -38 9 -32 27 3 12 8 45 12 74
l6 54 -71 68 c-39 38 -87 76 -107 86 -48 22 -144 115 -127 121 8 3 37 -19 65
-50 60 -63 75 -72 139 -81 25 -4 52 -14 58 -21 17 -21 56 -19 78 3 32 32 66
115 69 167 7 135 6 155 -12 175 -10 11 -24 20 -32 20 -7 0 -13 7 -13 15 0 11
-12 4 -36 -19 -20 -20 -41 -33 -45 -30 -5 3 -14 -7 -19 -22 -13 -32 2 -54 36
-54 14 0 24 -6 24 -14 0 -7 7 -19 15 -26 19 -16 1 -42 -23 -33 -13 5 -14 3 -6
-6 10 -10 17 -10 35 1 38 23 54 17 56 -22 4 -43 -53 -153 -81 -158 -24 -5 -37
17 -25 39 17 32 9 42 -12 15 -18 -23 -25 -25 -62 -20 -47 7 -106 43 -143 87
-19 22 -22 32 -14 48 6 10 19 19 30 19 19 0 55 29 46 37 -3 3 -12 -2 -21 -11
-32 -32 -57 -17 -109 64 -20 30 -36 51 -36 47 0 -15 39 -85 65 -116 24 -27 25
-32 10 -37 -10 -4 -29 -3 -44 2 -33 12 -120 179 -124 239 -2 36 0 40 22 40 19
0 30 -11 51 -50 17 -33 34 -51 48 -53 23 -4 31 21 12 33 -6 4 -28 28 -49 55
-30 38 -37 54 -33 79 11 78 88 53 137 -44 22 -43 36 -60 50 -60 11 0 20 5 20
12 0 27 -110 143 -136 143 -25 0 -30 26 -10 44 28 25 81 30 121 12 l35 -15
-39 5 c-42 5 -46 -3 -6 -11 27 -5 70 -43 70 -61 0 -7 5 -16 11 -20 19 -12 -1
40 -23 59 -12 10 -18 20 -15 23 8 9 60 -30 92 -68 23 -27 26 -38 21 -75 -3
-23 -1 -45 4 -48 10 -6 33 31 26 43 -3 4 -1 14 3 21 11 18 47 -1 56 -30 4 -11
9 -18 12 -16 2 3 -3 19 -12 36 -12 24 -22 31 -45 31 -17 0 -30 4 -30 10 0 25
-80 95 -138 122 -56 26 -67 27 -103 18 -29 -8 -46 -20 -61 -46 -11 -19 -26
-34 -33 -34 -13 0 -25 -30 -25 -67 0 -13 -4 -23 -9 -23 -5 0 -16 -2 -23 -5 -9
-4 -19 5 -27 21 -17 38 -22 26 -10 -25 8 -36 7 -47 -6 -60 -13 -14 -15 -14
-15 1 0 9 6 18 13 21 6 2 9 8 4 12 -4 5 -14 0 -21 -11 -13 -16 -12 -21 1 -36
10 -11 12 -18 5 -18 -7 0 -12 -5 -12 -12 0 -6 8 -3 20 7 11 10 17 22 14 26 -3
5 0 9 6 9 7 0 9 -7 6 -16 -3 -8 1 -23 10 -32 12 -12 13 -17 4 -20 -7 -3 -16 1
-20 8 -6 10 -15 6 -33 -16 -14 -16 -23 -33 -19 -38 3 -6 8 -4 10 4 8 23 31 42
42 35 7 -4 3 -14 -11 -26 -17 -15 -19 -22 -10 -33 8 -10 9 -16 1 -21 -16 -10
-12 -28 6 -21 8 3 12 2 9 -3 -3 -6 3 -14 12 -20 10 -5 15 -13 11 -16 -4 -4
-14 0 -23 9 -9 8 -24 20 -33 26 -12 8 -14 13 -4 16 16 7 15 21 -1 27 -9 3 -12
-4 -11 -22 2 -39 3 -41 14 -41 6 0 20 -8 31 -19 16 -14 17 -20 6 -24 -8 -3
-20 3 -28 14 -16 23 -25 24 -32 5 -4 -10 -1 -13 7 -10 8 3 17 0 22 -7 4 -7 3
-10 -4 -5 -6 3 -16 -3 -23 -15 -8 -17 -8 -23 2 -30 10 -6 10 -10 0 -23 -8 -9
-9 -16 -3 -16 6 0 12 6 15 13 2 6 8 9 12 5 4 -4 0 -19 -9 -32 -22 -34 -20 -43
4 -21 26 23 26 5 0 -23 l-20 -21 27 -21 c14 -11 23 -23 19 -27 -4 -4 -11 -1
-16 7 -7 12 -12 12 -22 2 -9 -9 -9 -12 5 -12 20 0 22 -11 5 -28 -9 -9 -8 -12
6 -12 9 0 15 3 13 8 -7 12 30 45 38 33 3 -6 11 -11 16 -11 6 0 7 4 4 10 -3 6
1 10 10 10 9 0 14 4 10 9 -6 11 44 65 53 57 3 -4 -5 -17 -17 -30 -14 -15 -19
-26 -12 -31 6 -3 16 5 23 19 12 27 23 33 33 16 3 -6 -1 -10 -9 -10 -9 0 -16
-4 -16 -10 0 -5 7 -10 15 -10 8 0 15 -4 15 -10 0 -13 -13 -13 -27 1 -8 8 -13
8 -17 0 -4 -6 -2 -11 5 -11 6 0 20 -10 30 -22 11 -11 22 -18 27 -13 4 4 1 10
-5 12 -23 8 -14 25 8 18 l22 -7 -21 22 c-12 13 -19 27 -16 31 3 5 -4 19 -15
31 -19 20 -20 23 -5 45 14 23 14 25 -10 44 -15 11 -33 27 -40 35 -13 12 -18
10 -40 -19 -17 -21 -21 -33 -13 -36 25 -9 40 -32 28 -44 -8 -8 -11 -8 -11 1 0
7 -5 12 -12 12 -7 0 -5 -7 6 -17 13 -13 20 -15 23 -5 4 11 33 18 33 7 0 -3 -8
-14 -17 -25 -12 -14 -19 -16 -24 -8 -5 7 -11 9 -16 5 -4 -5 -2 -11 4 -15 17
-11 -11 -44 -31 -36 -18 7 -21 20 -7 28 5 4 11 0 14 -6 2 -7 8 -10 12 -5 10 8
-26 38 -37 31 -5 -3 -8 2 -8 10 0 19 11 21 28 4 7 -7 12 -8 12 -2 0 5 -9 15
-21 22 -13 8 -18 19 -15 29 4 8 2 21 -4 28 -8 9 -8 15 0 20 5 3 10 1 10 -4 0
-6 5 -11 10 -11 16 0 11 17 -7 24 -9 4 -20 1 -24 -5 -4 -6 -12 -8 -18 -4 -9 5
-7 11 6 20 11 9 22 10 29 4 8 -7 18 1 32 22 l20 32 -24 26 c-17 18 -20 27 -11
33 9 6 9 8 0 8 -7 0 -13 7 -13 15 0 20 13 19 34 -4 13 -14 14 -20 4 -23 -10
-4 -8 -9 5 -22 10 -10 21 -15 25 -12 3 4 0 11 -7 15 -10 7 -11 13 -2 27 10 18
10 18 11 -3 0 -12 6 -24 13 -26 9 -4 8 -8 -3 -16 -8 -5 -11 -13 -7 -17 3 -4
14 -1 24 7 15 12 16 12 10 -4 -5 -13 2 -26 24 -44 19 -16 28 -31 24 -41 -3 -8
0 -19 7 -24 10 -8 10 -11 1 -15 -18 -7 -16 -23 2 -23 8 0 15 7 15 15 0 8 5 15
12 15 6 0 8 -3 5 -7 -4 -3 1 -12 11 -19 15 -12 15 -15 2 -23 -8 -6 -11 -14 -6
-18 4 -4 13 0 20 10 14 18 32 24 21 7 -3 -5 1 -10 9 -10 9 0 16 -5 16 -11 0
-6 7 -9 15 -5 13 5 14 2 5 -15 -6 -11 -9 -25 -6 -32 2 -7 5 -5 5 4 1 14 20 29
38 29 3 0 34 -29 69 -64 70 -71 75 -88 48 -161 -25 -68 -30 -62 58 -64 l47 -1
-13 -32 c-25 -61 1 -76 53 -32 26 21 29 29 20 45 -9 18 -6 19 56 17 36 -2 65
-6 65 -9 0 -3 -17 -30 -38 -60 -52 -75 -158 -142 -332 -211 -41 -16 -84 -38
-96 -49 -27 -25 -68 -24 -103 2 -22 16 -34 19 -61 12 -43 -11 -48 -28 -13 -42
15 -6 39 -19 54 -28 39 -25 105 -9 222 51 201 105 261 138 294 164 37 29 133
145 133 161 0 5 3 11 8 13 10 4 125 200 151 258 44 97 63 332 41 506 -10 78
-62 206 -132 320 -31 51 -59 102 -63 114 -4 12 -22 55 -41 96 -36 79 -146 364
-186 478 -13 38 -29 71 -35 73 -7 3 -17 -14 -23 -39z"/>
<path d="M1852 3207 c-36 -38 -55 -97 -54 -171 0 -57 5 -79 32 -130 38 -73 47
-143 30 -217 -20 -85 -33 -99 -93 -99 -30 0 -57 -6 -66 -14 -18 -16 -9 -21
-223 127 -53 37 -102 67 -108 67 -6 0 -13 6 -16 14 -6 17 -34 30 -34 17 0 -5
17 -20 38 -32 20 -13 109 -72 197 -132 148 -101 224 -146 166 -99 l-24 20 23
12 c14 7 38 9 65 6 l43 -7 23 48 c20 40 24 63 24 143 0 84 -3 102 -29 155 -50
104 -45 206 14 277 37 44 47 33 64 -73 8 -46 27 -140 44 -209 51 -212 41 -277
-62 -415 -12 -16 29 -123 55 -147 35 -31 127 9 254 111 39 31 72 59 75 62 10
12 197 147 270 195 101 67 280 168 285 162 1 -2 5 -19 8 -38 l7 -35 -82 -45
c-81 -45 -241 -144 -288 -177 -63 -46 -159 -120 -191 -147 -35 -29 -61 -40
-199 -81 -65 -20 -115 -42 -152 -67 -38 -26 -50 -24 -38 8 12 31 6 44 -22 44
-22 0 -78 -30 -78 -42 0 -4 -7 -8 -15 -8 -8 0 -15 -4 -15 -8 0 -5 -19 -19 -42
-32 -99 -55 -280 -208 -313 -264 -14 -24 -25 -55 -25 -69 0 -22 -5 -27 -24
-27 -34 0 -99 76 -90 104 11 34 36 61 84 92 54 35 62 67 30 118 l-21 34 98 -1
c131 -2 158 11 154 75 -3 50 23 161 45 192 16 23 18 36 5 36 -19 0 -53 -107
-58 -187 l-6 -83 -41 -11 c-49 -14 -80 -15 -163 -4 -67 8 -78 1 -43 -30 28
-25 26 -30 -22 -45 -24 -6 -72 -25 -107 -41 -35 -16 -67 -26 -72 -23 -5 3 -82
95 -170 205 -89 109 -165 199 -169 199 -4 0 -14 -8 -23 -18 -16 -17 -15 -21
16 -58 75 -87 297 -364 297 -368 0 -3 -21 -20 -47 -37 -27 -18 -74 -54 -105
-81 l-57 -49 -78 15 c-109 21 -225 46 -245 52 -10 3 -18 1 -18 -5 0 -6 10 -11
21 -11 12 0 63 -9 113 -20 50 -11 125 -27 166 -35 41 -9 116 -24 165 -35 50
-11 97 -20 105 -20 27 2 -25 18 -114 36 -47 9 -86 20 -86 23 0 16 186 160 194
149 2 -1 9 -25 16 -51 7 -26 18 -46 24 -44 6 2 23 -16 39 -41 15 -24 31 -42
34 -38 3 3 -6 25 -21 48 l-27 43 45 -49 c43 -47 44 -51 29 -68 -12 -13 -26
-17 -57 -13 -38 4 -37 3 8 -7 39 -8 50 -8 57 3 4 7 11 10 15 6 19 -19 -20 -33
-97 -36 -97 -2 -175 -16 -204 -35 -37 -24 -163 -155 -170 -176 -8 -25 -32 -26
-40 -1 -9 29 33 138 82 215 24 37 42 71 39 73 -6 6 -85 -117 -111 -172 -10
-22 -20 -61 -23 -87 -4 -45 -3 -48 24 -59 20 -7 39 -8 62 -1 17 6 32 8 32 6 0
-2 -9 -21 -20 -41 -30 -57 -22 -139 18 -185 20 -23 25 -23 53 6 19 19 26 22
41 12 10 -6 18 -18 18 -26 0 -9 -86 -69 -208 -144 -114 -71 -233 -145 -264
-165 -32 -20 -83 -52 -115 -72 -266 -165 -323 -202 -323 -214 0 -7 6 -18 14
-24 15 -13 11 -15 486 280 389 242 350 221 350 189 0 -15 7 -20 29 -20 18 0
50 -16 87 -43 84 -61 143 -94 187 -101 43 -8 178 22 507 110 292 79 542 82
870 9 173 -39 257 -55 282 -55 15 0 29 -4 32 -8 3 -5 -26 -37 -64 -72 -39 -35
-70 -69 -70 -74 0 -6 35 24 78 67 65 65 83 77 112 78 29 1 31 2 12 7 -22 7
-20 10 31 62 l54 55 74 -37 c76 -37 206 -74 230 -66 16 6 -4 15 -91 43 -59 19
-133 55 -165 80 -19 15 -18 16 15 43 l33 28 76 -38 c42 -21 84 -38 94 -38 22
0 77 -28 77 -39 0 -4 12 -14 28 -22 15 -8 38 -24 52 -36 14 -12 59 -50 100
-85 70 -58 180 -167 180 -178 0 -3 -17 -15 -38 -26 l-37 -22 -75 60 c-118 94
-181 133 -240 151 -81 25 -215 49 -295 53 l-70 3 55 -10 c30 -5 87 -14 125
-20 195 -31 264 -63 423 -193 68 -56 75 -59 95 -46 12 8 39 22 59 32 36 18 64
43 34 32 -32 -12 -38 8 -10 37 15 16 24 32 20 36 -5 5 -15 -2 -23 -14 -20 -30
-38 -29 -69 2 l-25 25 31 26 c39 33 32 44 -10 14 l-32 -23 -26 20 c-32 24 -34
42 -7 57 11 6 22 12 24 14 3 1 -6 10 -18 19 -32 22 -62 92 -50 115 15 28 27
22 54 -31 31 -62 125 -171 283 -328 67 -68 122 -127 122 -133 0 -5 5 -10 10
-10 26 0 0 33 -114 144 -202 196 -298 320 -332 429 -11 34 -38 71 -110 150
-26 28 -62 35 -81 16 -11 -11 -17 10 -29 116 l-6 60 50 -70 c28 -38 71 -92 97
-120 28 -30 68 -94 101 -160 72 -143 100 -180 328 -415 45 -47 93 -100 105
-118 13 -18 25 -31 28 -28 10 9 -51 82 -189 227 -175 184 -186 198 -255 336
-40 79 -75 133 -114 174 -30 33 -71 85 -90 115 -76 123 -160 191 -249 199
l-45 5 38 -10 c20 -5 59 -21 87 -35 65 -33 146 -111 94 -91 -14 5 -74 -47 -74
-66 0 -4 16 -23 35 -42 19 -20 35 -40 35 -45 0 -6 9 -19 21 -30 16 -14 19 -24
11 -37 -8 -14 -15 -9 -51 37 -23 30 -53 65 -65 79 -13 14 -26 36 -31 49 -6 20
-4 22 13 17 14 -5 24 1 36 18 26 41 21 54 -21 53 -21 -1 -53 2 -70 6 -27 7
-33 6 -33 -7 0 -12 -11 -16 -47 -16 -41 0 -58 7 -117 48 l-69 47 104 11 104
12 -90 0 c-134 0 -138 0 -168 26 -37 32 -29 60 20 77 47 15 98 7 229 -37 106
-36 182 -72 215 -100 8 -8 19 -14 23 -14 5 0 42 -21 82 -46 87 -54 115 -95
139 -198 37 -157 161 -333 444 -626 71 -74 132 -132 136 -129 3 3 -36 48 -87
100 -299 303 -448 508 -479 659 -19 93 -52 146 -117 187 -92 59 -225 135 -252
143 -14 5 -70 25 -124 44 -142 51 -233 49 -262 -5 -8 -16 -19 -29 -24 -29 -15
0 -12 38 6 65 19 30 5 62 -32 71 -20 5 -22 9 -12 21 16 20 65 11 110 -20 26
-17 57 -26 105 -30 68 -7 184 -37 206 -55 18 -13 47 -22 47 -14 0 15 -103 54
-178 68 -128 24 -162 33 -191 55 -45 33 -121 24 -121 -16 0 -7 -7 -18 -15 -25
-8 -7 -15 -21 -15 -32 0 -25 4 -27 -123 61 -68 47 -103 77 -96 82 7 4 63 10
124 14 85 6 118 4 136 -6 37 -20 56 -20 91 0 58 33 133 42 335 40 106 -2 196
0 200 4 11 12 -431 7 -474 -5 -21 -5 -53 -17 -72 -26 -26 -12 -40 -13 -65 -5
-19 7 -141 10 -326 8 l-296 -3 -74 -32 c-67 -28 -79 -30 -111 -21 -21 6 -39
17 -42 24 -9 25 35 78 107 126 100 68 121 96 105 139 -6 15 -16 22 -36 22 -31
0 -125 -36 -166 -63 -15 -9 -29 -17 -33 -17 -4 0 -22 -11 -40 -25 -18 -14 -37
-25 -42 -25 -5 0 -15 -7 -22 -15 -16 -19 -45 -19 -79 1 -26 15 -30 15 -69 -5
-23 -12 -42 -20 -42 -18 0 7 106 76 133 86 39 15 54 14 39 -1 -18 -18 -15 -48
6 -48 9 0 46 19 82 43 97 62 158 89 221 94 55 5 56 5 66 -23 15 -43 -7 -87
-55 -113 -13 -7 -31 -19 -40 -26 -9 -8 -37 -29 -62 -47 -36 -27 -45 -40 -45
-64 0 -45 45 -44 135 2 39 20 81 36 93 36 12 -1 96 -4 187 -7 139 -6 191 -3
330 15 196 26 416 34 595 23 126 -8 215 0 215 18 0 5 -3 9 -7 9 -5 0 -71 7
-148 15 -162 17 -593 14 -740 -5 -119 -16 -278 -9 -328 15 -44 21 -55 38 -63
99 -12 86 55 177 206 279 41 28 77 54 78 59 2 4 7 8 12 8 5 0 44 22 87 48 131
81 196 116 192 103 -3 -7 -27 -25 -54 -40 -153 -86 -337 -216 -425 -302 -47
-45 -58 -62 -63 -98 -6 -47 8 -99 32 -118 22 -18 76 -31 146 -38 33 -3 76 -7
95 -9 19 -2 53 2 75 9 99 33 659 37 824 5 65 -12 74 -12 67 -2 -6 10 -180 29
-374 40 -153 9 -164 13 -156 61 7 44 48 71 105 71 86 0 153 48 201 144 11 22
41 62 66 89 50 51 51 64 1 20 -27 -24 -73 -85 -89 -118 -19 -39 -69 -94 -95
-104 -17 -6 -57 -11 -88 -11 -53 0 -58 2 -68 28 -17 42 -4 124 26 170 32 48
115 106 174 122 92 24 283 -23 267 -67 -3 -8 1 -12 12 -10 9 1 18 6 19 11 1 5
7 13 15 17 11 7 10 11 -2 18 -12 8 -12 12 3 29 18 20 23 47 7 37 -5 -3 -10 1
-10 10 0 11 5 15 16 11 9 -3 12 -2 9 5 -4 5 -1 16 5 24 8 9 8 15 2 15 -6 0
-12 -6 -15 -12 -3 -10 -10 -8 -25 6 -18 16 -19 20 -7 32 13 13 44 9 55 -7 3
-4 12 -4 19 1 11 6 6 12 -20 23 -48 20 -182 38 -193 27 -15 -15 2 -24 19 -10
12 10 15 10 15 0 0 -7 7 -10 15 -6 13 5 14 2 4 -15 -9 -17 -8 -23 2 -30 7 -4
10 -11 7 -15 -4 -3 -14 1 -23 10 -9 9 -24 15 -33 15 -15 -1 -15 -2 1 -6 9 -2
17 -8 17 -13 0 -5 14 -18 31 -30 29 -22 31 -22 45 -4 10 13 13 15 12 4 -2 -8
-9 -21 -16 -28 -11 -12 -16 -12 -31 2 -19 18 -46 22 -36 6 9 -14 -7 -12 -27 4
-25 18 -22 29 4 20 21 -6 21 -6 4 11 -14 15 -19 16 -26 5 -7 -11 -11 -11 -24
-1 -9 8 -16 9 -16 3 0 -6 6 -12 13 -15 10 -4 10 -7 0 -18 -16 -16 -17 -29 -3
-29 6 0 10 7 10 15 0 20 7 19 32 -5 15 -13 25 -17 32 -10 15 15 23 13 46 -12
17 -18 20 -19 20 -5 0 9 5 17 10 17 12 0 13 -10 1 -29 -8 -12 -13 -12 -35 3
-15 9 -31 14 -37 11 -5 -4 -21 0 -34 9 -21 14 -25 14 -32 1 -7 -12 -13 -11
-35 8 -14 12 -38 32 -54 44 -21 17 -25 25 -16 36 7 8 8 17 4 21 -4 4 -2 6 5 4
6 -2 11 2 11 7 0 6 -5 9 -11 7 -7 -2 -8 0 -4 5 15 14 87 11 87 -4 0 -17 -17
-17 -22 -1 -3 9 -9 8 -22 -5 -16 -15 -16 -18 -2 -33 20 -19 20 -24 1 -24 -8 0
-15 7 -15 15 0 8 -4 15 -10 15 -16 0 -12 -22 7 -36 20 -14 43 -2 43 22 0 8 4
14 8 14 4 0 15 13 25 29 l17 29 -83 6 c-45 3 -93 7 -107 9 -47 7 -132 -22
-288 -95 -24 -11 -46 -18 -49 -14 -9 9 -7 9 87 48 216 88 194 83 335 82 91 -1
148 -6 189 -18 79 -23 167 -26 174 -6 3 11 1 12 -7 4 -9 -8 -27 -7 -69 3 -154
37 -279 55 -348 49 -68 -5 -218 -52 -293 -90 -74 -39 -78 -38 -89 4 l-10 39
45 21 c25 12 99 37 165 56 100 28 137 34 226 35 101 1 104 2 52 11 -80 14
-214 -7 -350 -53 -63 -22 -121 -40 -129 -42 -11 -1 -22 28 -42 108 -15 61 -28
102 -28 93 -1 -9 10 -63 24 -119 13 -57 24 -103 22 -104 -1 -1 -49 -28 -107
-60 -155 -85 -273 -165 -460 -312 -8 -6 -38 -31 -67 -55 -65 -54 -149 -104
-188 -111 -37 -7 -56 7 -74 53 -24 64 -25 80 -3 103 33 35 82 161 82 209 0 24
-18 115 -39 203 -21 88 -42 184 -45 214 -12 92 -40 115 -84 68z m1424 -350
c19 -19 -124 -117 -172 -117 -9 0 -24 -10 -34 -22 -17 -21 -18 -21 -41 -5 -74
53 -67 50 -85 32 -13 -12 -14 -19 -5 -24 6 -4 9 -15 5 -24 -3 -9 -2 -17 4 -17
5 0 13 -7 16 -16 3 -8 2 -12 -3 -9 -6 3 -14 -3 -20 -12 -5 -10 -13 -14 -17
-10 -5 5 -2 12 6 17 8 5 11 12 7 17 -5 4 -12 1 -17 -7 -5 -8 -12 -12 -15 -9
-8 8 5 39 16 39 5 0 9 7 9 15 0 8 -4 15 -10 15 -5 0 -10 -7 -10 -15 0 -18 -17
-20 -23 -2 -2 6 -8 8 -13 4 -5 -5 -1 -13 10 -19 15 -8 16 -12 5 -19 -11 -8 -9
-13 9 -29 14 -11 20 -24 16 -31 -8 -13 -2 -11 61 32 55 37 145 79 145 68 0 -5
5 -9 11 -9 6 0 9 7 5 15 -4 13 -2 13 14 5 24 -13 40 -13 20 0 -13 9 -12 12 4
25 10 8 23 12 29 8 5 -3 13 1 18 8 6 11 13 9 32 -9 13 -12 26 -20 29 -17 3 3
8 -1 11 -10 4 -9 1 -15 -8 -15 -8 0 -15 5 -15 10 0 6 -4 10 -10 10 -5 0 -10
-7 -10 -15 0 -8 -19 -23 -42 -33 -24 -10 -66 -42 -95 -71 l-51 -52 -7 30 c-4
17 -11 31 -16 31 -6 0 -6 -8 1 -19 13 -25 12 -83 -1 -141 -6 -25 -14 -88 -17
-140 l-7 -95 -95 -6 c-52 -4 -119 -10 -147 -14 -48 -7 -53 -6 -54 11 -1 17 -2
17 -6 2 -6 -23 -43 -33 -115 -33 -45 1 -61 5 -73 20 -13 18 -14 18 -15 3 0
-24 -62 -24 -110 0 -80 39 -79 143 2 218 40 37 98 78 98 69 0 -4 26 17 58 46
92 85 217 156 154 88 -17 -17 -19 -25 -9 -40 6 -10 13 -16 16 -14 2 3 11 0 18
-7 11 -9 16 -9 23 3 7 11 12 11 22 1 9 -9 9 -12 0 -12 -7 0 -12 -5 -12 -11 0
-8 5 -8 15 1 8 7 15 19 15 26 0 16 16 19 25 4 3 -5 1 -10 -4 -10 -6 0 -11 -4
-11 -10 0 -16 17 -11 24 7 4 9 1 20 -5 24 -6 4 -8 12 -5 18 14 21 37 -15 30
-45 l-7 -28 24 25 c26 24 36 59 18 59 -6 0 -7 -4 -4 -10 3 -5 -1 -10 -9 -10
-19 0 -21 11 -4 28 8 8 9 12 1 12 -6 0 -13 -6 -16 -12 -4 -10 -7 -10 -18 0 -9
9 -10 12 -1 12 7 0 12 5 12 11 0 5 -4 7 -10 4 -5 -3 -10 1 -10 9 0 19 11 21
28 4 8 -8 12 -9 12 -1 0 6 -6 13 -12 16 -10 3 -10 7 1 20 12 15 11 17 -4 17
-10 0 -15 -3 -12 -6 4 -4 -3 -15 -14 -25 -12 -10 -18 -23 -14 -28 9 -15 -8
-14 -23 1 -17 17 -45 -21 -30 -39 13 -16 28 -17 28 -2 0 5 -4 7 -10 4 -5 -3
-10 1 -10 9 0 18 16 21 25 6 4 -6 11 -8 16 -5 15 10 10 -14 -8 -35 -13 -14
-19 -16 -25 -7 -6 9 -10 9 -17 -2 -7 -12 -13 -12 -24 -3 -7 7 -16 10 -19 7 -2
-3 -5 2 -5 10 0 18 9 19 25 3 8 -8 12 -9 12 -1 0 6 -6 13 -12 15 -21 7 39 78
65 78 12 0 28 9 35 21 12 19 15 20 37 5 15 -10 26 -12 30 -6 3 6 1 10 -4 10
-6 0 -11 5 -11 11 0 8 5 8 15 -1 11 -9 15 -10 15 -1 0 31 100 85 225 121 31 9
121 7 131 -3z m-1078 -575 c5 -31 -26 -63 -105 -114 -76 -48 -113 -90 -113
-128 0 -26 5 -31 48 -44 47 -15 47 -15 12 -15 -20 -1 -46 6 -58 15 -14 10 -38
14 -69 12 l-48 -3 39 -18 c22 -9 37 -19 35 -21 -2 -2 -67 -11 -144 -21 -99
-12 -140 -14 -143 -6 -2 7 -13 6 -33 -5 -17 -8 -52 -18 -80 -21 -43 -5 -49 -4
-49 13 0 22 27 65 59 95 12 11 19 24 17 28 -3 5 7 19 22 32 25 22 25 22 8 2
-11 -13 -15 -23 -9 -23 16 0 54 46 46 55 -5 4 -2 5 5 1 6 -4 24 1 40 12 55 38
85 44 121 26 l32 -16 82 50 c193 117 278 145 285 94z m-795 -114 c9 -25 -12
-55 -56 -81 -28 -17 -51 -40 -62 -63 -9 -20 -20 -32 -24 -28 -24 28 -71 93
-71 97 0 8 77 44 140 66 68 24 67 24 73 9z m1227 -254 c77 -56 90 -68 75 -76
-16 -10 -31 0 -95 62 -52 51 -113 53 -201 6 -94 -50 -139 -54 -224 -20 -39 15
-74 30 -78 34 -4 4 41 13 100 20 59 7 146 19 193 25 135 20 128 21 230 -51z
m-115 6 c-10 -17 13 -37 73 -65 30 -14 53 -27 50 -30 -2 -2 -65 -16 -140 -30
-127 -23 -148 -24 -329 -17 -132 5 -223 3 -284 -5 -91 -12 -172 -16 -164 -9 2
2 28 7 58 10 29 4 58 9 63 12 6 4 101 8 212 9 230 3 216 2 216 13 0 5 -39 23
-87 42 -145 55 -156 60 -150 67 8 7 72 -12 137 -40 76 -34 138 -34 207 -1 103
51 152 66 138 44z m-1050 -130 c10 -11 16 -20 14 -20 -2 -1 -25 -3 -51 -5
-128 -11 -339 -122 -427 -222 -34 -40 -41 -55 -41 -90 0 -48 -16 -89 -38 -98
-19 -7 -25 -1 -46 54 -19 49 -15 85 16 138 25 41 19 50 -27 36 -19 -6 -35 -9
-35 -6 0 19 49 79 104 127 98 86 113 90 308 91 92 0 170 4 174 8 13 12 30 8
49 -13z m1382 -33 c21 -19 57 -45 81 -59 24 -14 43 -29 42 -33 -1 -5 27 -22
61 -39 34 -17 64 -37 67 -44 2 -7 -10 -25 -27 -41 -18 -17 -27 -32 -21 -36 5
-3 13 1 16 9 3 9 10 16 14 16 5 0 1 -18 -8 -40 -9 -22 -23 -40 -30 -40 -15 0
-107 92 -182 184 -30 37 -67 82 -82 99 -33 38 -34 44 -10 50 34 9 43 6 79 -26z
m-41 -78 c44 -50 89 -105 101 -122 27 -37 204 -209 239 -232 l26 -17 -28 -29
c-15 -16 -33 -29 -40 -29 -23 0 -150 148 -184 215 -56 110 -90 143 -90 88 0
-31 53 -123 114 -198 22 -27 44 -52 47 -55 47 -37 87 -82 82 -92 -3 -7 -31
-37 -63 -66 l-58 -53 -93 20 c-52 11 -128 27 -169 36 -132 28 -352 63 -440 70
-85 6 -249 -6 -332 -25 -99 -22 -257 -61 -308 -76 -30 -8 -84 -21 -120 -29
-36 -7 -97 -22 -137 -33 -109 -30 -153 -16 -284 85 -34 26 -66 43 -82 43 -41
0 -47 28 -12 56 28 22 39 23 41 3 1 -5 2 -13 3 -18 0 -5 11 -11 24 -15 12 -3
49 -21 81 -41 32 -19 61 -33 64 -30 3 3 -9 20 -28 38 -18 17 -45 50 -59 72
-14 22 -29 42 -33 45 -4 3 -4 11 1 18 5 9 24 7 79 -8 39 -11 88 -20 107 -20
38 0 115 21 115 31 0 3 -28 9 -62 12 -70 6 -153 29 -182 50 -13 10 -16 20 -12
35 4 12 11 20 15 18 4 -3 32 4 61 15 29 11 112 35 184 54 134 34 152 47 29 20
-75 -17 -118 -28 -207 -57 -32 -10 -61 -17 -64 -14 -11 12 128 66 242 96 115
29 168 49 96 36 -102 -19 -214 -53 -307 -93 -7 -3 -13 -1 -13 4 0 15 61 38
425 162 131 44 240 54 561 49 239 -4 292 -8 374 -26 52 -12 112 -29 133 -37
94 -37 118 2 47 79 -22 23 -37 46 -33 49 3 4 21 7 38 7 28 0 42 -12 111 -91z
m-129 26 c65 -68 55 -93 -24 -60 -46 19 -188 55 -219 55 -12 0 -25 4 -28 9 -5
7 39 16 164 35 56 8 65 5 107 -39z m659 -219 c59 -68 119 -151 131 -178 12
-27 10 -30 -26 -53 -36 -25 -39 -25 -81 -10 -23 8 -67 29 -97 46 -52 30 -53
32 -37 50 19 21 13 25 -15 7 -15 -9 -25 -7 -52 12 -77 53 -94 82 -70 119 7 11
14 10 39 -8 17 -11 44 -24 60 -27 17 -4 35 -16 43 -30 8 -16 18 -22 29 -19 11
3 34 -8 60 -30 24 -20 45 -33 49 -30 3 4 -8 16 -24 28 -17 12 -42 34 -57 49
-14 16 -31 28 -37 28 -18 0 -13 11 14 32 14 11 25 26 25 34 0 23 16 16 46 -20z
m192 -68 c119 -132 137 -167 105 -200 -27 -26 -70 -9 -117 48 -38 46 -56 88
-56 136 0 42 37 50 68 16z"/>
<path d="M2455 1528 c-16 -5 -49 -18 -72 -29 -24 -10 -49 -19 -56 -19 -7 0
-17 -4 -23 -10 -9 -9 -114 -32 -304 -66 -52 -9 -109 -22 -127 -29 -17 -7 -66
-19 -107 -26 -42 -6 -79 -16 -82 -21 -4 -6 6 -7 22 -5 72 13 135 27 206 47 43
12 83 18 89 15 21 -13 194 -6 249 9 30 9 79 22 108 28 28 7 52 15 52 19 0 3
-26 0 -57 -8 -119 -28 -206 -43 -256 -42 -47 1 -49 2 -22 10 17 5 67 15 111
23 74 13 274 85 299 107 11 11 9 10 -30 -3z"/>
<path d="M2585 1433 c-61 -10 -140 -25 -215 -39 -47 -9 -94 -17 -105 -19 -93
-11 -136 -20 -172 -36 -23 -10 -59 -19 -80 -19 -21 -1 -67 -7 -103 -14 -96
-21 -318 -84 -295 -85 11 0 36 4 55 9 352 92 441 103 665 80 202 -21 275 -26
275 -18 0 4 -15 8 -32 9 -18 0 -53 3 -78 5 -112 11 -249 26 -295 33 l-50 7 75
10 c84 12 373 66 379 71 8 6 -4 9 -24 6z"/>
<path d="M3826 2981 c-5 -8 8 -10 48 -5 32 4 61 3 68 -3 7 -6 28 -13 47 -17
56 -10 203 -101 257 -158 102 -108 143 -173 222 -350 27 -60 52 -192 52 -274
0 -42 4 -64 11 -64 17 0 3 170 -21 257 -42 153 -133 313 -241 428 -67 70 -93
89 -182 135 -92 46 -114 53 -180 58 -49 3 -77 1 -81 -7z"/>
<path d="M3765 2890 c-8 -12 -14 -11 75 -16 101 -5 160 -20 255 -65 102 -48
117 -61 154 -135 40 -79 60 -205 68 -426 6 -166 6 -166 -21 -217 -33 -64 -34
-91 -3 -91 48 0 60 29 61 152 2 171 -22 428 -46 506 -27 90 -64 154 -102 177
-79 47 -167 87 -232 105 -74 21 -199 27 -209 10z"/>
<path d="M3762 2148 c-17 -17 -15 -31 4 -24 9 3 25 -1 37 -9 18 -13 19 -15 4
-15 -9 0 -17 5 -17 10 0 6 -10 8 -24 4 -13 -3 -27 -1 -30 5 -12 20 -35 12 -42
-14 -3 -14 -11 -25 -16 -25 -6 0 -5 -6 2 -15 7 -8 18 -15 24 -15 6 0 5 4 -3 9
-7 5 -10 14 -6 21 6 9 9 9 15 0 5 -7 23 -13 41 -12 18 0 39 -4 46 -10 10 -8
15 -4 22 13 9 23 10 23 26 -16 22 -49 21 -106 -1 -122 -14 -10 -14 -12 0 -15
13 -2 12 -11 -9 -57 -40 -85 -69 -241 -46 -241 6 0 11 17 11 38 0 65 22 155
47 192 12 19 23 43 23 53 0 17 9 18 119 15 66 -2 117 0 114 5 -2 4 -53 7 -114
7 l-109 0 0 34 c0 57 -30 133 -66 166 -38 35 -36 34 -52 18z"/>
<path d="M3515 2097 c-177 -70 -253 -238 -142 -314 36 -25 113 -31 148 -13 14
8 25 6 44 -6 37 -24 165 -11 193 19 32 35 42 63 42 112 0 74 -38 124 -93 125
-16 0 -26 4 -22 9 3 5 -10 25 -29 45 -28 30 -40 36 -72 35 -22 0 -52 -6 -69
-12z m106 -37 c29 -16 23 -46 -14 -69 -45 -27 -77 -88 -77 -144 0 -41 -3 -46
-29 -55 -44 -16 -95 3 -117 43 -31 58 6 127 106 193 65 43 96 50 131 32z m139
-100 c8 -14 6 -20 -8 -23 -12 -3 -10 -5 7 -6 17 -1 21 -5 17 -17 -3 -9 -6 -20
-6 -25 0 -5 -17 -17 -37 -26 -27 -13 -41 -27 -48 -50 -11 -40 -34 -49 -75 -28
-25 13 -30 22 -30 51 0 20 10 54 23 77 36 66 132 94 157 47z"/>
<path d="M3713 1536 c-27 -13 -27 -13 -8 -90 18 -74 72 -158 100 -154 25 4 31
39 12 70 -8 13 -20 41 -27 63 -21 72 -42 125 -48 124 -4 -1 -17 -6 -29 -13z"/>
</g>
</svg>
